<svg xmlns="http://www.w3.org/2000/svg" viewBox="1187.4 201.8 514.9 143.1" width="515" height="143">
<path d="M1376.41 270.93L1405.11 270.93L1405.11 261.84L1376.41 261.84Z M1376.41 261.84 M1410.41 228.9 C1412.83 226.33 1413.67 225.5 1415.94 223.15 C1419.87 225.65 1421.01 226.48 1424.64 229.43 C1424.87 229.66 1425.02 229.89 1425.02 230.04 C1425.02 230.27 1424.72 230.49 1424.27 230.49 L1394.28 230.49 L1394.28 237.91 L1405.71 237.91 C1407.99 235.49 1408.67 234.73 1411.02 232.62 C1414.5 234.96 1415.56 235.72 1418.97 238.45 C1419.27 238.75 1419.34 238.9 1419.34 239.05 C1419.34 239.35 1419.04 239.51 1418.59 239.51 L1368.92 239.51 C1367.86 239.51 1366.42 239.66 1364.68 239.81 L1364.07 237.31 C1366.19 237.84 1367.1 237.91 1369.07 237.91 L1385.8 237.91 L1385.8 230.49 L1362.93 230.49 C1361.27 230.49 1360.21 230.57 1358.69 230.8 L1358.24 228.22 C1360.06 228.68 1361.42 228.9 1362.93 228.9 L1385.8 228.9 L1385.8 227.77 C1385.8 225.12 1385.73 223.76 1385.42 221.18 C1387.77 221.33 1389.59 221.48 1390.72 221.56 C1396.1 221.86 1397.46 222.24 1397.46 223.38 C1397.46 224.21 1396.55 224.74 1394.28 225.27 L1394.28 228.9 Z M1376.41 273.58 C1376.26 274.03 1376.18 274.11 1375.88 274.34 C1379.14 275.4 1380.12 275.7 1381.94 276.53 C1384.82 277.82 1386.41 279.56 1386.41 281.45 C1386.41 283.5 1385.2 285.32 1383.08 286.37 L1394.58 286.37 C1397.01 281.76 1398.45 278.12 1399.35 273.8 C1408.74 276.91 1410.18 277.52 1410.18 278.42 C1410.18 279.33 1409.2 279.64 1406.32 279.79 C1403.22 282.44 1400.11 284.86 1397.69 286.37 L1411.47 286.37 C1414.27 283.57 1415.1 282.66 1417.75 280.01 C1421.54 282.89 1422.68 283.8 1426.16 286.83 C1426.39 287.06 1426.54 287.36 1426.54 287.51 C1426.54 287.74 1426.23 287.97 1425.7 287.97 L1361.65 287.97 C1360.21 287.97 1358.77 288.12 1357.48 288.27 L1357.03 285.85 C1358.85 286.22 1359.98 286.37 1361.65 286.37 L1379.52 286.37 C1378.61 285.77 1378.38 285.24 1378.08 283.65 C1377.32 279.03 1376.79 277.52 1374.75 274.79 L1374.82 274.64 C1373.38 274.87 1372.55 274.94 1371.26 275.02 L1370.43 275.02 L1370.28 275.02 C1368.92 275.02 1368.23 274.49 1368.16 273.28 C1368.31 269.34 1368.31 268.05 1368.31 265.33 C1368.31 261.39 1368.23 258.96 1368.01 255.94 C1372.1 257.6 1373.31 258.21 1377.17 260.25 L1404.5 260.25 C1406.4 258.28 1407 257.68 1408.9 256.01 C1411.47 257.68 1412.23 258.21 1414.65 260.1 C1415.33 260.63 1415.63 261.01 1415.63 261.46 C1415.63 262.07 1415.18 262.45 1413.14 263.58 L1413.14 265.63 C1413.14 267.52 1413.14 268.05 1413.51 272.97 C1413.44 273.73 1413.29 274.03 1412.76 274.26 C1411.85 274.64 1409.27 275.02 1407.46 275.02 C1405.79 275.02 1405.26 274.71 1405.11 273.8 L1405.11 272.52 L1376.41 272.52 Z M1413.97 245.18 C1416.01 243.29 1416.69 242.76 1418.66 241.1 C1421.77 243.22 1422.75 243.9 1425.93 246.24 C1426.61 246.77 1426.84 247.23 1426.84 247.76 C1426.84 248.82 1425.93 249.12 1422.75 249.12 L1422.45 249.12 C1418.74 251.85 1417.22 252.76 1412.98 255.1 L1412.45 254.72 L1412.76 254.04 L1373.84 254.04 C1372.1 254.04 1370.89 254.12 1369.22 254.35 L1368.76 252 C1370.51 252.38 1371.64 252.45 1373.84 252.45 L1401.78 252.45 C1403.97 250.11 1404.65 249.42 1406.85 247.38 C1409.95 249.58 1410.71 250.11 1413.44 252.3 C1414.04 250.48 1414.27 249.58 1414.95 246.77 L1366.95 246.77 L1366.95 247.99 C1366.95 253.89 1364.15 258.59 1360.66 258.59 C1358.39 258.59 1356.57 256.39 1356.57 253.59 C1356.57 251.62 1357.03 251.01 1359.68 249.58 C1362.93 247.76 1364.3 245.79 1365.05 241.63 L1365.89 241.63 C1366.42 243.37 1366.57 243.97 1366.8 245.18 Z" fill="#ffffff"></path>
<path d="M1494.92 252.68L1481.29 252.68L1481.29 262.37L1494.92 262.37Z M1494.92 241.85L1481.29 241.85L1481.29 251.09L1494.92 251.09Z M1473.34 252.68L1460.62 252.68L1460.62 262.37L1473.34 262.37Z M1473.34 241.85L1460.62 241.85L1460.62 251.09L1473.34 251.09Z M1482.35 263.96 C1484.62 267.37 1487.87 270.1 1492.95 272.82 C1499.31 276.23 1504.84 277.82 1514.15 278.8 L1514.15 279.64 C1511.65 280.85 1510.36 282.21 1509.15 285.01 C1508.77 285.92 1508.7 286.22 1508.32 287.59 C1508.17 288.19 1507.94 288.42 1507.49 288.42 C1506.65 288.42 1503.55 287.06 1500.9 285.54 C1491.89 280.32 1486.59 274.71 1481.14 264.72 L1481.29 273.96 C1481.59 285.54 1481.59 285.54 1481.67 288.65 C1481.67 289.55 1481.51 290.01 1481.06 290.31 C1480.38 290.84 1478.56 291.07 1475.68 291.07 C1473.34 291.07 1472.96 290.84 1472.88 289.4 C1473.03 285.85 1473.34 278.65 1473.34 275.85 L1473.41 270.63 C1467.73 276.15 1463.87 279.11 1458.12 282.28 C1453.5 284.86 1449.71 286.45 1442.75 288.72 L1442.29 287.74 C1453.57 281.6 1462.66 273.5 1469.02 263.96 L1460.62 263.96 L1460.62 265.1 C1460.54 265.93 1460.39 266.31 1460.01 266.61 C1459.33 267.14 1457.36 267.45 1454.86 267.45 C1452.89 267.45 1452.44 267.14 1452.36 265.63 C1452.74 258.21 1452.82 255.26 1452.82 248.36 C1452.82 241.17 1452.74 239.2 1452.44 236.1 C1456.3 237.84 1457.44 238.37 1461.45 240.26 L1473.34 240.26 L1473.34 232.08 L1450.24 232.08 C1448.12 232.08 1446.84 232.16 1444.49 232.54 L1443.88 229.74 C1446.31 230.27 1448.2 230.49 1450.24 230.49 L1473.34 230.49 C1473.34 225.19 1473.26 223.83 1472.73 220.88 C1483.1 221.86 1484.24 222.09 1484.24 223.15 C1484.24 223.83 1483.56 224.36 1481.29 225.12 L1481.29 230.49 L1497.79 230.49 C1500.37 227.62 1501.13 226.78 1503.7 224.06 C1507.41 226.94 1508.55 227.84 1512.26 230.95 C1512.56 231.25 1512.64 231.4 1512.64 231.63 C1512.64 231.93 1512.33 232.08 1511.88 232.08 L1481.29 232.08 L1481.29 240.26 L1494.39 240.26 C1496.13 238.37 1496.66 237.76 1498.48 236.02 C1501.2 237.84 1502.03 238.45 1504.53 240.34 C1505.37 240.94 1505.67 241.32 1505.67 241.78 C1505.67 242.38 1504.99 242.99 1502.87 244.05 C1502.87 256.16 1502.87 256.77 1503.09 264.57 L1503.09 264.87 C1503.09 265.55 1502.94 265.93 1502.56 266.23 C1501.88 266.84 1499.76 267.22 1497.04 267.22 C1495.45 267.22 1495.07 266.91 1494.92 265.78 L1494.92 263.96 Z" fill="#ffffff"></path>
<path d="M1569.73 280.39 C1578.36 280.92 1580.94 281.15 1586.46 282.13 C1589.34 282.59 1591.16 283.35 1591.99 284.41 C1592.82 285.31 1593.28 286.68 1593.28 288.12 C1593.28 290.39 1592.14 292.13 1590.7 292.13 C1589.95 292.13 1589.19 291.75 1587.9 290.84 C1581.62 286.22 1576.92 283.8 1569.65 281.15 Z M1578.44 241.85 C1578.89 238.52 1578.89 238.52 1579.12 236.17 L1569.2 236.17 C1568.82 238.75 1568.82 238.75 1568.44 241.85 Z M1568.22 243.44 C1567.76 246.55 1567.76 246.55 1567.31 249.58 L1577.3 249.58 L1577.91 245.49 C1578.06 244.2 1578.06 244.2 1578.21 243.44 Z M1561.1 241.85 C1561.4 239.43 1561.48 238.97 1561.7 236.17 L1552.62 236.17 C1552.24 238.97 1552.16 239.66 1551.78 241.85 Z M1559.81 249.58 C1560.57 245.56 1560.57 245.56 1560.87 243.44 L1551.48 243.44 C1551.03 246.24 1551.03 246.24 1550.27 249.58 Z M1549.59 276.68L1579.95 276.68L1579.95 270.93L1549.59 270.93Z M1549.59 270.93 M1549.59 269.34L1579.95 269.34L1579.95 264.26L1549.59 264.26Z M1549.59 264.27 M1579.95 257.45L1549.59 257.45L1549.59 262.67L1579.95 262.67Z M1531.64 290.77 C1540.58 287.51 1547.32 283.65 1551.71 279.26 C1553.75 280.01 1555.27 280.62 1556.25 281.07 C1557.99 281.83 1559.21 282.29 1559.66 282.51 C1560.95 282.97 1561.63 283.42 1561.63 283.88 C1561.63 284.41 1560.64 284.86 1559.36 284.86 C1559.21 284.86 1559.21 284.86 1557.46 284.78 C1549.13 288.95 1545.8 289.78 1531.95 291.6 Z M1586.77 228.3 C1588.66 226.33 1589.27 225.72 1591.08 223.98 C1594.57 226.41 1595.63 227.16 1599.03 229.81 C1599.64 230.27 1599.79 230.57 1599.79 230.95 C1599.79 231.93 1598.65 232.31 1595.02 232.31 C1593.66 232.99 1592.75 233.45 1591.99 233.83 C1590.78 234.43 1590.17 234.73 1588.28 235.64 C1588.66 235.95 1588.74 236.17 1588.74 236.48 C1588.74 236.78 1588.51 237.08 1588.13 237.31 C1587.07 237.92 1587.07 237.92 1586.69 238.22 C1586.46 240.11 1586.31 241.32 1586.24 241.85 L1588.81 241.85 C1590.86 239.66 1591.54 238.97 1593.58 236.93 C1596.69 239.28 1597.59 240.04 1600.47 242.53 C1600.7 242.76 1600.77 242.91 1600.77 243.06 C1600.77 243.29 1600.55 243.44 1600.09 243.44 L1586.01 243.44 C1585.4 248.97 1585.4 248.97 1585.03 251.32 C1584.95 252.07 1584.8 252.3 1584.12 252.6 C1586.46 254.04 1586.84 254.35 1589.04 255.86 C1589.87 256.47 1590.17 256.84 1590.17 257.15 C1590.17 257.75 1589.8 258.06 1587.75 259.19 C1587.68 262.3 1587.68 263.89 1587.68 265.33 C1587.68 267.75 1587.68 267.9 1587.98 277.97 L1587.98 278.42 C1587.98 279.71 1586.31 280.24 1581.85 280.24 C1580.48 280.24 1580.03 280.01 1579.95 279.18 L1579.95 278.27 L1549.59 278.27 L1549.59 279.03 C1549.51 279.64 1549.36 279.94 1548.76 280.09 C1548.15 280.32 1545.58 280.54 1543.99 280.54 C1542.09 280.54 1541.49 280.17 1541.49 279.03 C1541.94 270.25 1541.94 269.64 1541.94 265.63 C1541.94 260.78 1541.79 254.2 1541.71 252.3 C1545.5 253.66 1546.64 254.12 1550.35 255.86 L1579.42 255.86 C1581.01 254.35 1581.62 253.89 1582.68 252.98 C1581.54 253.13 1580.41 253.21 1578.59 253.21 C1577.45 253.21 1576.92 252.91 1576.92 252.23 C1576.92 252.07 1576.92 252 1577 251.77 L1577.08 251.17 L1549.97 251.17 L1549.82 251.85 C1549.44 252.53 1548.91 252.68 1547.32 252.68 C1543.53 252.68 1542.02 252.38 1542.02 251.54 C1542.02 251.39 1542.02 251.24 1542.09 251.09 C1543.08 247.23 1543.3 246.24 1543.91 243.44 L1538.53 243.44 C1536.64 243.44 1535.51 243.52 1533.46 243.97 L1532.78 241.17 C1534.82 241.63 1536.41 241.85 1538.53 241.85 L1544.21 241.85 C1544.97 237.69 1545.2 235.8 1545.43 231.25 C1548.98 232.54 1550.12 232.99 1553.83 234.58 L1578.82 234.58 C1580.33 233.14 1580.79 232.69 1582.3 231.48 C1584.5 232.92 1584.5 232.92 1586.62 234.43 C1587.15 232.62 1587.3 232.01 1587.75 229.89 L1541.94 229.89 C1541.79 232.46 1541.56 233.6 1541.03 235.11 C1539.9 238.22 1537.32 240.57 1535.05 240.57 C1532.86 240.57 1531.11 238.52 1531.11 235.95 C1531.11 234.96 1531.42 233.98 1531.95 233.45 C1532.33 233.07 1532.33 233.07 1534.37 232.01 C1537.63 230.34 1538.84 228.68 1539.9 223.91 L1540.88 223.91 C1541.49 226.1 1541.64 226.78 1541.79 228.3 L1559.96 228.3 L1559.96 225.8 C1559.96 223.45 1559.89 222.47 1559.43 220.35 C1571.77 221.41 1571.77 221.41 1571.77 222.39 C1571.77 223.07 1571.02 223.53 1568.67 224.13 L1568.67 228.3 Z" fill="#ffffff"></path>
<path d="M1635.99 236.93 C1643.64 239.58 1646.44 241.47 1646.44 243.97 C1646.44 245.64 1645.45 247.15 1643.86 248.14 L1655.83 248.14 C1658.33 244.05 1659.61 241.17 1660.75 236.93 Z M1625.39 221.86 C1634.1 224.74 1637.05 226.71 1637.05 229.74 C1637.05 232.24 1634.55 235.11 1632.36 235.11 C1631.07 235.11 1630.31 234.21 1629.86 232.08 C1629.1 228.83 1627.74 226.25 1624.78 222.47 Z M1661.58 236.93 C1671.35 240.56 1671.35 240.56 1671.35 241.4 C1671.35 242.15 1670.44 242.46 1668.4 242.46 C1668.32 242.46 1668.09 242.46 1667.87 242.38 C1661.51 246.85 1661.51 246.85 1659.39 248.14 L1671.2 248.14 C1673.47 245.87 1674.23 245.11 1676.42 242.91 C1679.76 245.34 1680.81 246.09 1683.92 248.74 C1684.15 248.97 1684.3 249.12 1684.3 249.35 C1684.3 249.58 1683.92 249.73 1683.46 249.73 L1655.37 249.73 L1655.37 256.54 L1666.96 256.54 C1669.15 254.27 1669.84 253.59 1671.96 251.47 C1675.14 253.82 1676.04 254.5 1679 257 C1679.3 257.22 1679.45 257.53 1679.45 257.68 C1679.45 257.98 1679.07 258.13 1678.54 258.13 L1655.37 258.13 L1655.37 265.4 L1672.79 265.4 C1675.21 262.9 1675.97 262.22 1678.32 259.87 C1681.72 262.37 1682.71 263.2 1685.89 265.86 C1686.19 266.08 1686.34 266.31 1686.34 266.54 C1686.34 266.84 1685.96 266.99 1685.36 266.99 L1656.36 266.99 C1659.54 270.17 1661.89 271.84 1665.14 273.35 C1671.43 276.23 1678.16 277.74 1687.63 278.35 L1687.63 279.41 C1684.98 280.54 1683.77 281.98 1682.33 285.92 C1681.88 287.21 1681.8 287.28 1681.19 287.28 C1680.21 287.28 1675.89 285.69 1672.79 284.25 C1665.52 280.7 1660.6 276.15 1655.37 268.13 L1655.37 275.7 C1655.37 279.33 1655.37 282.06 1655.6 288.87 C1655.6 290.46 1654.62 290.77 1650 290.77 C1647.5 290.77 1647.12 290.54 1647.12 289.25 C1647.27 285.16 1647.5 277.82 1647.5 276.08 L1647.5 271.46 C1641.74 276.91 1638.11 279.48 1632.73 282.21 C1628.27 284.48 1624.56 285.77 1617.06 287.81 L1616.61 286.9 C1623.12 283.57 1628.12 280.24 1633.34 275.55 C1636.44 272.75 1638.19 270.85 1641.29 266.99 L1624.78 266.99 C1623.12 266.99 1621.22 267.14 1619.33 267.52 L1618.95 264.72 C1621.38 265.25 1622.82 265.4 1624.78 265.4 L1647.5 265.4 L1647.5 258.13 L1631.75 258.13 C1629.71 258.13 1627.96 258.28 1625.84 258.59 L1625.39 255.86 C1627.66 256.31 1629.4 256.54 1631.75 256.54 L1647.5 256.54 L1647.5 249.73 L1627.28 249.73 C1625.39 249.73 1624.25 249.8 1622.21 250.18 L1621.75 247.46 C1623.87 247.99 1625.39 248.14 1627.28 248.14 L1640.15 248.14 C1639.55 247.53 1639.4 247.15 1639.09 245.87 C1638.19 242.08 1637.43 240.19 1635.38 237.54 L1635.99 236.93 L1623.42 236.93 C1621.22 236.93 1619.48 237.08 1618.04 237.31 L1617.59 234.58 C1619.63 235.11 1621.53 235.34 1623.42 235.34 L1641.37 235.34 L1641.37 228.15 C1641.37 224.82 1641.29 223.53 1640.99 220.73 C1649.39 221.33 1650 221.41 1650.83 221.71 C1651.36 221.86 1651.66 222.17 1651.66 222.54 C1651.66 223.23 1651.06 223.6 1648.79 224.21 L1648.79 235.34 L1654.39 235.34 L1654.39 228.07 C1654.39 225.19 1654.31 223.83 1654.16 220.88 C1663.7 221.48 1664.76 221.64 1664.76 222.7 C1664.76 223.3 1664.16 223.68 1661.89 224.36 L1661.89 235.34 L1664.84 235.34 C1667.72 230.12 1669.91 225.04 1670.9 221.56 C1678.92 224.51 1681.27 225.57 1681.27 226.41 C1681.27 227.09 1680.36 227.39 1678.24 227.39 L1677.63 227.39 C1671.43 232.84 1671.12 233.07 1667.72 235.34 L1675.21 235.34 C1677.48 232.99 1677.48 232.99 1680.36 229.89 C1683.69 232.39 1684.68 233.14 1687.93 235.95 C1688.16 236.17 1688.31 236.4 1688.31 236.55 C1688.31 236.78 1687.93 236.93 1687.4 236.93 Z" fill="#ffffff"></path>
<path d="M1356.71 325.04 L1358.1 324.74 C1358.7 324.61 1358.8 324.54 1358.8 324.14 L1358.8 312.02 C1358.8 311.63 1358.7 311.55 1358.1 311.43 L1356.71 311.13 L1356.71 310.39 L1363.81 310.39 L1363.81 311.13 L1362.42 311.43 C1361.83 311.55 1361.73 311.63 1361.73 312.02 L1361.73 324.14 C1361.73 324.54 1361.83 324.61 1362.42 324.74 L1363.81 325.04 L1363.81 325.78 L1356.71 325.78 Z" fill="#ffffff"></path>
<path d="M1385.76 311.28 C1385.27 311.28 1384.52 311.38 1384.05 311.48 L1384.05 324.66 C1384.67 324.76 1385.47 324.86 1386.06 324.86 L1386.58 324.86 C1389.96 324.86 1392.12 322.28 1392.12 318.03 C1392.12 314.36 1390.71 311.28 1386.31 311.28 Z M1379.03 325.04 L1380.42 324.74 C1381.02 324.61 1381.12 324.54 1381.12 324.14 L1381.12 312.02 C1381.12 311.63 1381.02 311.55 1380.42 311.43 L1379.03 311.13 L1379.03 310.39 L1386.66 310.39 C1391.77 310.39 1395.25 313.07 1395.25 317.96 C1395.25 322.41 1392.1 325.78 1387.23 325.78 L1379.03 325.78 Z" fill="#ffffff"></path>
<path d="M1408.78 325.16 C1412.36 325.16 1413.67 321.61 1413.67 317.93 C1413.67 314.36 1412.38 310.91 1408.78 310.91 C1405.2 310.91 1403.89 314.28 1403.89 317.93 C1403.89 321.76 1405.2 325.16 1408.78 325.16 M1408.78 309.99 C1413.6 309.99 1416.98 313.17 1416.98 317.93 C1416.98 322.75 1413.65 326.08 1408.78 326.08 C1403.99 326.08 1400.59 322.75 1400.59 317.93 C1400.59 313.24 1403.99 309.99 1408.78 309.99" fill="#ffffff"></path>
<path d="M1421.47 325.04 L1422.93 324.74 C1423.53 324.61 1423.55 324.54 1423.63 324.14 C1423.73 323.15 1423.73 321.96 1423.73 321.26 L1423.73 312.07 C1423.73 311.68 1423.63 311.58 1423.03 311.45 L1421.62 311.13 L1421.62 310.39 L1426.66 310.39 L1431.97 321.41 L1437.53 310.39 L1442.48 310.39 L1442.48 311.13 L1441.11 311.43 C1440.51 311.55 1440.41 311.63 1440.41 312.02 L1440.41 324.14 C1440.41 324.54 1440.51 324.61 1441.11 324.74 L1442.5 325.04 L1442.5 325.78 L1435.17 325.78 L1435.17 325.04 L1436.69 324.74 C1437.29 324.61 1437.48 324.54 1437.48 324.12 L1437.48 313.54 L1431.3 325.76 L1430.93 325.76 L1425.17 313.99 L1425.17 321.26 C1425.17 321.96 1425.17 323.15 1425.27 324.14 C1425.34 324.54 1425.46 324.61 1426.06 324.74 L1427.72 325.04 L1427.72 325.78 L1421.47 325.78 Z" fill="#ffffff"></path>
<path d="M1450.77 320.19 L1455.54 320.19 L1453.13 313.56 Z M1446.07 325.04 L1447.09 324.76 C1447.46 324.66 1447.71 324.34 1447.84 323.97 L1453.28 309.99 L1454.79 309.99 L1460.05 324.19 C1460.16 324.49 1460.35 324.71 1460.85 324.84 L1461.52 325.04 L1461.52 325.78 L1455.26 325.78 L1455.26 325.04 L1456.5 324.76 C1457 324.66 1457.05 324.42 1456.93 324.02 L1455.93 321.31 L1450.37 321.31 L1449.43 324.02 C1449.25 324.49 1449.38 324.69 1449.75 324.76 L1450.99 325.04 L1450.99 325.78 L1446.07 325.78 Z" fill="#ffffff"></path>
<path d="M1465.27 325.04 L1466.66 324.74 C1467.25 324.61 1467.35 324.54 1467.35 324.14 L1467.35 312.02 C1467.35 311.63 1467.25 311.55 1466.66 311.43 L1465.27 311.13 L1465.27 310.39 L1472.37 310.39 L1472.37 311.13 L1470.98 311.43 C1470.38 311.55 1470.28 311.63 1470.28 312.02 L1470.28 324.14 C1470.28 324.54 1470.38 324.61 1470.98 324.74 L1472.37 325.04 L1472.37 325.78 L1465.27 325.78 Z" fill="#ffffff"></path>
<path d="M1477.55 325.04 L1479.04 324.74 C1479.64 324.61 1479.66 324.54 1479.74 324.14 C1479.84 323.15 1479.84 321.96 1479.84 321.26 L1479.84 312.07 C1479.84 311.68 1479.74 311.58 1479.14 311.45 L1477.68 311.13 L1477.68 310.39 L1482.32 310.39 L1491.04 321.14 L1491.04 314.9 C1491.04 314.21 1491.04 313.02 1490.94 312.02 C1490.87 311.63 1490.74 311.55 1490.14 311.43 L1488.46 311.13 L1488.46 310.39 L1494.71 310.39 L1494.71 311.13 L1493.27 311.43 C1492.68 311.55 1492.65 311.63 1492.58 312.02 C1492.48 313.02 1492.48 314.21 1492.48 314.9 L1492.48 326.01 L1491.36 326.01 L1481.28 313.56 L1481.28 321.26 C1481.28 321.96 1481.28 323.15 1481.38 324.14 C1481.45 324.54 1481.58 324.61 1482.17 324.74 L1483.86 325.04 L1483.86 325.78 L1477.55 325.78 Z" fill="#ffffff"></path>
<path d="M1509.44 325.04 L1510.83 324.74 C1511.42 324.61 1511.52 324.54 1511.52 324.14 L1511.52 312.02 C1511.52 311.63 1511.42 311.55 1510.83 311.43 L1509.44 311.13 L1509.44 310.39 L1516.54 310.39 L1516.54 311.13 L1515.15 311.43 C1514.55 311.55 1514.45 311.63 1514.45 312.02 L1514.45 324.14 C1514.45 324.54 1514.55 324.61 1515.15 324.74 L1516.54 325.04 L1516.54 325.78 L1509.44 325.78 Z" fill="#ffffff"></path>
<path d="M1521.72 325.04 L1523.21 324.74 C1523.81 324.61 1523.83 324.54 1523.91 324.14 C1524.01 323.15 1524.01 321.96 1524.01 321.26 L1524.01 312.07 C1524.01 311.68 1523.91 311.58 1523.31 311.45 L1521.85 311.13 L1521.85 310.39 L1526.49 310.39 L1535.21 321.14 L1535.21 314.9 C1535.21 314.21 1535.21 313.02 1535.11 312.02 C1535.03 311.63 1534.91 311.55 1534.31 311.43 L1532.62 311.13 L1532.62 310.39 L1538.88 310.39 L1538.88 311.13 L1537.44 311.43 C1536.85 311.55 1536.82 311.63 1536.75 312.02 C1536.65 313.02 1536.65 314.21 1536.65 314.9 L1536.65 326.01 L1535.53 326.01 L1525.45 313.56 L1525.45 321.26 C1525.45 321.96 1525.45 323.15 1525.55 324.14 C1525.62 324.54 1525.75 324.61 1526.34 324.74 L1528.03 325.04 L1528.03 325.78 L1521.72 325.78 Z" fill="#ffffff"></path>
<path d="M1550.79 311.28 C1550.29 311.28 1549.55 311.38 1549.07 311.48 L1549.07 324.66 C1549.7 324.76 1550.49 324.86 1551.09 324.86 L1551.61 324.86 C1554.99 324.86 1557.15 322.28 1557.15 318.03 C1557.15 314.36 1555.73 311.28 1551.33 311.28 Z M1544.06 325.04 L1545.45 324.74 C1546.04 324.61 1546.14 324.54 1546.14 324.14 L1546.14 312.02 C1546.14 311.63 1546.04 311.55 1545.45 311.43 L1544.06 311.13 L1544.06 310.39 L1551.68 310.39 C1556.8 310.39 1560.28 313.07 1560.28 317.96 C1560.28 322.41 1557.12 325.78 1552.25 325.78 L1544.06 325.78 Z" fill="#ffffff"></path>
<path d="M1566.76 312.05 C1566.76 311.68 1566.68 311.55 1566.19 311.43 L1564.97 311.16 L1564.97 310.39 L1571.65 310.39 L1571.65 311.16 L1570.21 311.45 C1569.71 311.53 1569.66 311.68 1569.66 312.05 L1569.66 320.02 C1569.66 323.32 1571.05 324.71 1573.41 324.71 C1576.44 324.71 1577.81 322.68 1577.81 319.82 L1577.81 311.97 C1577.81 311.68 1577.68 311.55 1577.11 311.45 L1575.52 311.16 L1575.52 310.39 L1580.91 310.39 L1580.91 311.16 L1579.94 311.38 C1579.45 311.48 1579.25 311.6 1579.25 311.97 L1579.25 319.82 C1579.25 323.82 1577.01 326.08 1573.01 326.08 C1569.32 326.08 1566.76 324.47 1566.76 320.02 Z" fill="#ffffff"></path>
<path d="M1586.03 326.08 C1586.11 325.16 1586.18 322.5 1585.98 320.42 L1586.7 320.42 C1586.9 321.49 1587.2 322.93 1587.67 323.84 C1588.24 324.57 1589.34 325.26 1590.63 325.26 C1592.61 325.26 1593.8 323.99 1593.8 322.31 C1593.8 320.62 1592.76 319.82 1591.37 319.23 L1589.16 318.26 C1587.45 317.46 1586.16 316.42 1586.16 314.04 C1586.16 311.48 1588.59 309.99 1591.6 309.99 C1593.09 309.99 1594.23 310.39 1595 310.76 L1595.57 310.09 L1596.06 310.09 L1596.19 314.98 L1595.44 314.98 C1595.25 313.96 1594.8 312.67 1594.4 312 C1593.91 311.43 1592.96 310.81 1591.6 310.81 C1590.11 310.81 1588.86 311.6 1588.86 313.29 C1588.86 314.78 1589.61 315.35 1590.88 315.95 L1593.19 316.97 C1595.07 317.84 1596.71 318.93 1596.71 321.41 C1596.71 324.29 1594.13 326.08 1590.55 326.08 C1588.96 326.08 1587.75 325.71 1586.98 325.34 L1586.58 326.08 Z" fill="#ffffff"></path>
<path d="M1605.14 325.04 L1606.73 324.74 C1607.33 324.61 1607.43 324.54 1607.43 324.14 L1607.43 311.28 L1606.78 311.28 C1605.66 311.28 1604.22 311.48 1603.53 311.97 C1603.13 312.65 1602.66 313.89 1602.36 315.05 L1601.64 315.05 L1601.94 310.19 C1602.34 310.29 1603.23 310.39 1603.93 310.39 L1613.96 310.39 C1614.65 310.39 1615.55 310.29 1615.94 310.19 L1616.24 315.05 L1615.52 315.05 C1615.22 313.89 1614.75 312.65 1614.36 311.97 C1613.61 311.5 1612.19 311.28 1611.08 311.28 L1610.36 311.28 L1610.36 324.14 C1610.36 324.54 1610.38 324.61 1611.05 324.74 L1612.64 325.04 L1612.64 325.78 L1605.14 325.78 Z" fill="#ffffff"></path>
<path d="M1627.61 311.28 C1627.14 311.28 1626.59 311.38 1626.22 311.48 L1626.22 318.13 L1627.84 318.13 C1630.44 318.13 1631.61 316.82 1631.61 314.53 C1631.61 312.32 1630.34 311.28 1628.03 311.28 Z M1621.21 325.04 L1622.6 324.74 C1623.19 324.61 1623.29 324.54 1623.29 324.14 L1623.29 312.02 C1623.29 311.63 1623.19 311.55 1622.6 311.43 L1621.21 311.13 L1621.21 310.39 L1628.68 310.39 C1632.28 310.39 1634.57 311.65 1634.57 314.41 C1634.57 316.87 1632.63 318.13 1630.54 318.53 C1631.11 318.93 1631.59 319.75 1632.21 320.67 L1633.75 323 C1634.14 323.6 1634.72 324.37 1635.29 324.66 L1636.68 325.04 L1636.68 325.78 L1632.73 325.78 C1632.03 325.26 1631.36 324.19 1630.59 323 L1628.18 319.15 L1626.22 319.15 L1626.22 324.14 C1626.22 324.54 1626.32 324.61 1626.92 324.74 L1628.31 325.04 L1628.31 325.78 L1621.21 325.78 Z" fill="#ffffff"></path>
<path d="M1641.56 325.04 L1642.95 324.74 C1643.55 324.61 1643.65 324.54 1643.65 324.14 L1643.65 312.02 C1643.65 311.63 1643.55 311.55 1642.95 311.43 L1641.56 311.13 L1641.56 310.39 L1648.66 310.39 L1648.66 311.13 L1647.27 311.43 C1646.68 311.55 1646.58 311.63 1646.58 312.02 L1646.58 324.14 C1646.58 324.54 1646.68 324.61 1647.27 324.74 L1648.66 325.04 L1648.66 325.78 L1641.56 325.78 Z" fill="#ffffff"></path>
<path d="M1658.18 320.19 L1662.95 320.19 L1660.54 313.56 Z M1653.49 325.04 L1654.51 324.76 C1654.88 324.66 1655.13 324.34 1655.25 323.97 L1660.69 309.99 L1662.21 309.99 L1667.47 324.19 C1667.57 324.49 1667.77 324.71 1668.27 324.84 L1668.94 325.04 L1668.94 325.78 L1662.68 325.78 L1662.68 325.04 L1663.92 324.76 C1664.42 324.66 1664.47 324.42 1664.34 324.02 L1663.35 321.31 L1657.79 321.31 L1656.84 324.02 C1656.67 324.49 1656.79 324.69 1657.16 324.76 L1658.41 325.04 L1658.41 325.78 L1653.49 325.78 Z" fill="#ffffff"></path>
<path d="M1673.84 325.04 L1675.23 324.74 C1675.83 324.61 1675.93 324.54 1675.93 324.14 L1675.93 312.02 C1675.93 311.63 1675.83 311.55 1675.23 311.43 L1673.84 311.13 L1673.84 310.39 L1681.17 310.39 L1681.17 311.13 L1679.65 311.43 C1679.06 311.55 1678.86 311.63 1678.86 312.05 L1678.86 324.69 C1679.53 324.79 1680.28 324.86 1680.9 324.86 L1681.42 324.86 C1682.31 324.86 1683.63 324.59 1684.3 324.19 C1684.84 323.5 1685.59 321.49 1685.94 320.42 L1686.66 320.42 L1685.81 325.78 L1673.84 325.78 Z" fill="#ffffff"></path>
<path d="M1275.35 303.46 Q1277.52 300.67 1281.94 295.59 Q1286.39 289.81 1288.49 288.51 C1292.5 286.03 1293.73 289.56 1292.47 293.14 C1291.01 297.29 1287.24 300.41 1283.8 302.77 C1281.5 304.36 1278.33 305.74 1276.77 306 C1275.21 306.25 1273.17 306.25 1275.35 303.46 M1237.56 286.35 C1250.53 263.46 1270.46 244.03 1294.84 235.73 C1301.57 233.43 1308.54 232.01 1315.45 230.43 C1316.66 230.16 1318.17 229.48 1318.06 228.21 C1317.96 227.13 1316.73 226.64 1315.71 226.39 C1272.36 215.81 1226.09 224.4 1206.89 271.12 C1202.19 282.56 1201.43 296.18 1207.1 307.09 C1211.74 316.01 1220.24 322.34 1229.5 325.71 C1243.92 330.95 1260.99 330.52 1275.81 327.11 C1279.64 326.23 1283.42 325.06 1287.06 323.55 C1296.1 319.82 1304.41 313.93 1310.32 305.94 C1314.1 300.84 1316.89 294.75 1317.18 288.35 C1317.53 280.44 1313.79 272.47 1307.56 267.89 C1304.13 265.37 1300.01 263.92 1295.81 263.61 C1292.36 263.36 1288.86 263.88 1285.64 265.2 C1278.09 268.32 1272.68 275.26 1268.28 282.32 C1263.88 289.38 1260.01 296.98 1254.05 302.69 C1251.62 305.02 1248.79 307.04 1245.57 307.82 C1242.35 308.61 1238.68 307.99 1236.3 305.63 C1233.87 303.23 1233.15 299.4 1233.69 295.96 C1234.23 292.52 1235.86 289.36 1237.56 286.35" fill="#ffffff"></path>
</svg>