<svg xmlns="http://www.w3.org/2000/svg" viewBox="308.1 333.4 361.1 356.6" width="361" height="357">
<path d="M532.43 596.52 Q538.56 588.65 551.02 574.33 Q563.57 558.05 569.49 554.39 C580.8 547.39 584.24 557.36 580.7 567.44 C576.58 579.12 565.96 587.92 556.28 594.58 C549.77 599.05 540.84 602.96 536.44 603.67 C532.04 604.39 526.31 604.39 532.43 596.52 M425.94 548.29 C462.49 483.78 518.65 429 587.38 405.59 C606.35 399.14 625.99 395.11 645.49 390.68 C648.89 389.9 653.15 387.98 652.83 384.41 C652.55 381.36 649.08 379.98 646.2 379.28 C524.02 349.45 393.6 373.67 339.47 505.37 C326.22 537.6 324.09 576.01 340.07 606.75 C353.14 631.9 377.11 649.74 403.21 659.23 C443.85 674.01 491.98 672.79 533.74 663.18 C544.54 660.7 555.18 657.41 565.47 653.16 C590.92 642.65 614.37 626.03 631.01 603.53 C641.66 589.13 649.53 571.98 650.35 553.93 C651.35 531.63 640.8 509.18 623.22 496.26 C613.57 489.17 601.96 485.08 590.13 484.2 C580.4 483.49 570.53 484.94 561.46 488.69 C540.17 497.47 524.93 517.04 512.52 536.94 C500.1 556.84 489.21 578.25 472.4 594.36 C465.55 600.92 457.58 606.6 448.5 608.82 C439.41 611.03 429.09 609.29 422.38 602.65 C415.53 595.86 413.5 585.09 415.02 575.39 C416.53 565.68 421.12 556.79 425.94 548.29" fill="#2d2d2d"></path>
</svg>