<svg xmlns="http://www.w3.org/2000/svg" viewBox="1184.3 734.5 521.6 115.2" width="522" height="115">
<path d="M1347.07 809.93L1378.8 809.93L1378.8 799.89L1347.07 799.89Z M1347.07 799.89 M1384.66 763.47 C1387.34 760.63 1388.26 759.71 1390.77 757.11 C1395.12 759.87 1396.38 760.79 1400.39 764.06 C1400.65 764.31 1400.81 764.56 1400.81 764.73 C1400.81 764.98 1400.48 765.23 1399.98 765.23 L1366.83 765.23 L1366.83 773.43 L1379.47 773.43 C1381.98 770.76 1382.73 769.92 1385.33 767.57 C1389.18 770.17 1390.35 771.01 1394.12 774.02 C1394.45 774.36 1394.54 774.52 1394.54 774.69 C1394.54 775.02 1394.2 775.19 1393.7 775.19 L1338.78 775.19 C1337.61 775.19 1336.02 775.36 1334.1 775.53 L1333.43 772.76 C1335.77 773.35 1336.78 773.43 1338.95 773.43 L1357.45 773.43 L1357.45 765.23 L1332.17 765.23 C1330.33 765.23 1329.16 765.31 1327.48 765.57 L1326.98 762.72 C1328.99 763.22 1330.5 763.47 1332.17 763.47 L1357.45 763.47 L1357.45 762.22 C1357.45 759.29 1357.37 757.78 1357.03 754.93 C1359.63 755.1 1361.64 755.27 1362.89 755.35 C1368.84 755.69 1370.34 756.11 1370.34 757.36 C1370.34 758.28 1369.34 758.87 1366.83 759.45 L1366.83 763.47 Z M1347.07 812.86 C1346.9 813.36 1346.82 813.45 1346.49 813.7 C1350.09 814.87 1351.17 815.2 1353.18 816.13 C1356.36 817.55 1358.12 819.47 1358.12 821.57 C1358.12 823.83 1356.78 825.84 1354.44 827.01 L1367.16 827.01 C1369.84 821.9 1371.43 817.88 1372.44 813.11 C1382.82 816.54 1384.41 817.21 1384.41 818.22 C1384.41 819.22 1383.32 819.56 1380.14 819.73 C1376.71 822.65 1373.27 825.33 1370.59 827.01 L1385.83 827.01 C1388.93 823.91 1389.85 822.91 1392.78 819.98 C1396.96 823.16 1398.22 824.16 1402.07 827.51 C1402.32 827.76 1402.49 828.1 1402.49 828.26 C1402.49 828.51 1402.15 828.77 1401.57 828.77 L1330.75 828.77 C1329.16 828.77 1327.57 828.93 1326.14 829.1 L1325.64 826.42 C1327.65 826.84 1328.91 827.01 1330.75 827.01 L1350.5 827.01 C1349.5 826.34 1349.25 825.75 1348.91 823.99 C1348.08 818.89 1347.49 817.21 1345.23 814.2 L1345.31 814.03 C1343.72 814.28 1342.8 814.37 1341.38 814.45 L1340.46 814.45 L1340.29 814.45 C1338.78 814.45 1338.03 813.87 1337.95 812.53 C1338.12 808.17 1338.12 806.75 1338.12 803.74 C1338.12 799.38 1338.03 796.7 1337.78 793.36 C1342.3 795.2 1343.64 795.87 1347.91 798.13 L1378.13 798.13 C1380.22 795.95 1380.89 795.28 1382.98 793.44 C1385.83 795.28 1386.67 795.87 1389.34 797.96 C1390.1 798.55 1390.43 798.96 1390.43 799.47 C1390.43 800.14 1389.93 800.56 1387.67 801.81 L1387.67 804.07 C1387.67 806.16 1387.67 806.75 1388.09 812.19 C1388.01 813.03 1387.84 813.36 1387.25 813.61 C1386.25 814.03 1383.4 814.45 1381.39 814.45 C1379.55 814.45 1378.97 814.12 1378.8 813.11 L1378.8 811.69 L1347.07 811.69 Z M1388.59 781.47 C1390.85 779.38 1391.6 778.79 1393.78 776.95 C1397.21 779.29 1398.3 780.05 1401.82 782.64 C1402.57 783.23 1402.82 783.73 1402.82 784.32 C1402.82 785.49 1401.82 785.82 1398.3 785.82 L1397.97 785.82 C1393.87 788.84 1392.19 789.84 1387.5 792.44 L1386.92 792.02 L1387.25 791.26 L1344.23 791.26 C1342.3 791.26 1340.96 791.35 1339.12 791.6 L1338.62 789 C1340.54 789.42 1341.8 789.51 1344.23 789.51 L1375.11 789.51 C1377.54 786.91 1378.3 786.16 1380.72 783.9 C1384.15 786.32 1384.99 786.91 1388.01 789.34 C1388.68 787.33 1388.93 786.32 1389.68 783.23 L1336.61 783.23 L1336.61 784.57 C1336.61 791.1 1333.51 796.29 1329.66 796.29 C1327.15 796.29 1325.14 793.86 1325.14 790.76 C1325.14 788.59 1325.64 787.92 1328.57 786.32 C1332.17 784.32 1333.68 782.14 1334.52 777.54 L1335.44 777.54 C1336.02 779.46 1336.19 780.13 1336.44 781.47 Z" fill="#2d2d2d"></path>
<path d="M1478.08 789.76L1463.02 789.76L1463.02 800.47L1478.08 800.47Z M1478.08 777.79L1463.02 777.79L1463.02 788L1478.08 788Z M1454.23 789.76L1440.16 789.76L1440.16 800.47L1454.23 800.47Z M1454.23 777.79L1440.16 777.79L1440.16 788L1454.23 788Z M1464.19 802.23 C1466.7 806 1470.3 809.01 1475.91 812.02 C1482.94 815.79 1489.05 817.55 1499.34 818.64 L1499.34 819.56 C1496.58 820.9 1495.16 822.4 1493.82 825.5 C1493.4 826.51 1493.32 826.84 1492.9 828.35 C1492.73 829.02 1492.48 829.27 1491.98 829.27 C1491.06 829.27 1487.63 827.76 1484.7 826.09 C1474.73 820.31 1468.87 814.12 1462.85 803.07 L1463.02 813.28 C1463.35 826.09 1463.35 826.09 1463.43 829.52 C1463.43 830.52 1463.27 831.03 1462.76 831.36 C1462.01 831.95 1460 832.2 1456.82 832.2 C1454.23 832.2 1453.81 831.95 1453.72 830.36 C1453.89 826.42 1454.23 818.47 1454.23 815.37 L1454.31 809.6 C1448.03 815.71 1443.76 818.97 1437.4 822.49 C1432.29 825.33 1428.11 827.09 1420.41 829.6 L1419.9 828.51 C1432.38 821.73 1442.42 812.78 1449.45 802.23 L1440.16 802.23 L1440.16 803.49 C1440.08 804.41 1439.91 804.82 1439.49 805.16 C1438.74 805.75 1436.56 806.08 1433.8 806.08 C1431.62 806.08 1431.12 805.75 1431.04 804.07 C1431.46 795.87 1431.54 792.6 1431.54 784.99 C1431.54 777.03 1431.46 774.86 1431.12 771.43 C1435.39 773.35 1436.65 773.94 1441.08 776.03 L1454.23 776.03 L1454.23 766.99 L1428.69 766.99 C1426.35 766.99 1424.93 767.07 1422.33 767.49 L1421.66 764.39 C1424.34 764.98 1426.43 765.23 1428.69 765.23 L1454.23 765.23 C1454.23 759.37 1454.14 757.86 1453.56 754.6 C1465.02 755.69 1466.28 755.94 1466.28 757.11 C1466.28 757.86 1465.53 758.45 1463.02 759.29 L1463.02 765.23 L1481.26 765.23 C1484.11 762.05 1484.95 761.13 1487.79 758.12 C1491.89 761.3 1493.15 762.3 1497.25 765.73 C1497.59 766.07 1497.67 766.24 1497.67 766.49 C1497.67 766.82 1497.34 766.99 1496.83 766.99 L1463.02 766.99 L1463.02 776.03 L1477.5 776.03 C1479.42 773.94 1480.01 773.27 1482.02 771.34 C1485.03 773.35 1485.95 774.02 1488.71 776.11 C1489.63 776.78 1489.97 777.2 1489.97 777.7 C1489.97 778.37 1489.22 779.04 1486.87 780.21 C1486.87 793.61 1486.87 794.28 1487.12 802.9 L1487.12 803.23 C1487.12 803.99 1486.96 804.41 1486.54 804.74 C1485.78 805.41 1483.44 805.83 1480.43 805.83 C1478.67 805.83 1478.25 805.49 1478.08 804.24 L1478.08 802.23 Z" fill="#2d2d2d"></path>
<path d="M1560.79 820.39 C1570.33 820.98 1573.18 821.23 1579.29 822.32 C1582.47 822.82 1584.48 823.66 1585.4 824.83 C1586.32 825.84 1586.82 827.34 1586.82 828.93 C1586.82 831.44 1585.57 833.37 1583.98 833.37 C1583.14 833.37 1582.3 832.95 1580.88 831.95 C1573.93 826.84 1568.74 824.16 1560.71 821.23 Z M1570.42 777.79 C1570.92 774.1 1570.92 774.1 1571.17 771.51 L1560.21 771.51 C1559.79 774.35 1559.79 774.35 1559.37 777.79 Z M1559.12 779.54 C1558.62 782.98 1558.62 782.98 1558.11 786.32 L1569.16 786.32 L1569.83 781.8 C1570 780.38 1570 780.38 1570.17 779.54 Z M1551.25 777.79 C1551.58 775.11 1551.67 774.61 1551.92 771.51 L1541.87 771.51 C1541.45 774.61 1541.37 775.36 1540.95 777.79 Z M1549.83 786.32 C1550.66 781.89 1550.66 781.89 1551 779.54 L1540.62 779.54 C1540.12 782.64 1540.12 782.64 1539.28 786.32 Z M1538.53 816.29L1572.09 816.29L1572.09 809.93L1538.53 809.93Z M1538.53 809.93 M1538.53 808.17L1572.09 808.17L1572.09 802.56L1538.53 802.56Z M1538.53 802.56 M1572.09 795.03L1538.53 795.03L1538.53 800.81L1572.09 800.81Z M1518.69 831.86 C1528.56 828.26 1536.01 823.99 1540.87 819.14 C1543.13 819.98 1544.8 820.65 1545.89 821.15 C1547.82 821.98 1549.16 822.49 1549.66 822.74 C1551.08 823.24 1551.83 823.74 1551.83 824.24 C1551.83 824.83 1550.75 825.33 1549.32 825.33 C1549.16 825.33 1549.16 825.33 1547.23 825.25 C1538.02 829.85 1534.34 830.77 1519.02 832.78 Z M1579.63 762.8 C1581.72 760.63 1582.39 759.96 1584.4 758.03 C1588.25 760.71 1589.42 761.55 1593.19 764.48 C1593.86 764.98 1594.02 765.31 1594.02 765.73 C1594.02 766.82 1592.77 767.24 1588.75 767.24 C1587.24 767.99 1586.24 768.49 1585.4 768.91 C1584.06 769.58 1583.39 769.92 1581.3 770.92 C1581.72 771.26 1581.8 771.51 1581.8 771.84 C1581.8 772.18 1581.55 772.51 1581.13 772.76 C1579.96 773.43 1579.96 773.43 1579.54 773.77 C1579.29 775.86 1579.12 777.2 1579.04 777.79 L1581.89 777.79 C1584.15 775.36 1584.9 774.61 1587.16 772.35 C1590.59 774.94 1591.6 775.78 1594.78 778.54 C1595.03 778.79 1595.11 778.96 1595.11 779.13 C1595.11 779.38 1594.86 779.54 1594.36 779.54 L1578.79 779.54 C1578.12 785.65 1578.12 785.65 1577.7 788.25 C1577.62 789.09 1577.45 789.34 1576.7 789.67 C1579.29 791.26 1579.71 791.6 1582.14 793.27 C1583.06 793.94 1583.39 794.36 1583.39 794.7 C1583.39 795.37 1582.97 795.7 1580.71 796.96 C1580.63 800.39 1580.63 802.15 1580.63 803.74 C1580.63 806.42 1580.63 806.58 1580.96 817.72 L1580.96 818.22 C1580.96 819.64 1579.12 820.23 1574.18 820.23 C1572.68 820.23 1572.18 819.98 1572.09 819.05 L1572.09 818.05 L1538.53 818.05 L1538.53 818.89 C1538.44 819.56 1538.27 819.89 1537.6 820.06 C1536.93 820.31 1534.09 820.56 1532.33 820.56 C1530.24 820.56 1529.57 820.14 1529.57 818.89 C1530.07 809.18 1530.07 808.51 1530.07 804.07 C1530.07 798.71 1529.9 791.43 1529.82 789.34 C1534 790.85 1535.26 791.35 1539.36 793.27 L1571.51 793.27 C1573.26 791.6 1573.93 791.1 1575.11 790.09 C1573.85 790.26 1572.59 790.34 1570.58 790.34 C1569.33 790.34 1568.74 790.01 1568.74 789.25 C1568.74 789.09 1568.74 789 1568.83 788.75 L1568.91 788.08 L1538.94 788.08 L1538.78 788.84 C1538.36 789.59 1537.77 789.76 1536.01 789.76 C1531.83 789.76 1530.15 789.42 1530.15 788.5 C1530.15 788.33 1530.15 788.17 1530.24 788 C1531.33 783.73 1531.58 782.64 1532.25 779.54 L1526.3 779.54 C1524.21 779.54 1522.96 779.63 1520.7 780.13 L1519.94 777.03 C1522.2 777.54 1523.96 777.79 1526.3 777.79 L1532.58 777.79 C1533.42 773.18 1533.67 771.09 1533.92 766.07 C1537.86 767.49 1539.11 767.99 1543.21 769.75 L1570.84 769.75 C1572.51 768.16 1573.01 767.66 1574.69 766.32 C1577.11 767.91 1577.11 767.91 1579.46 769.58 C1580.04 767.57 1580.21 766.9 1580.71 764.56 L1530.07 764.56 C1529.9 767.41 1529.65 768.66 1529.07 770.34 C1527.81 773.77 1524.96 776.36 1522.45 776.36 C1520.03 776.36 1518.1 774.1 1518.1 771.26 C1518.1 770.17 1518.43 769.08 1519.02 768.49 C1519.44 768.08 1519.44 768.08 1521.7 766.9 C1525.3 765.06 1526.64 763.22 1527.81 757.95 L1528.9 757.95 C1529.57 760.38 1529.74 761.13 1529.9 762.8 L1549.99 762.8 L1549.99 760.04 C1549.99 757.44 1549.91 756.36 1549.41 754.01 C1563.05 755.19 1563.05 755.19 1563.05 756.27 C1563.05 757.03 1562.21 757.53 1559.62 758.2 L1559.62 762.8 Z" fill="#2d2d2d"></path>
<path d="M1634.04 772.35 C1642.5 775.28 1645.59 777.37 1645.59 780.13 C1645.59 781.97 1644.51 783.65 1642.75 784.73 L1655.97 784.73 C1658.74 780.21 1660.16 777.03 1661.42 772.35 Z M1622.32 755.69 C1631.95 758.87 1635.21 761.04 1635.21 764.39 C1635.21 767.16 1632.45 770.34 1630.02 770.34 C1628.6 770.34 1627.76 769.33 1627.26 766.99 C1626.43 763.39 1624.92 760.54 1621.65 756.36 Z M1662.34 772.35 C1673.13 776.36 1673.13 776.36 1673.13 777.28 C1673.13 778.12 1672.13 778.46 1669.87 778.46 C1669.79 778.46 1669.54 778.46 1669.28 778.37 C1662.25 783.31 1662.25 783.31 1659.91 784.73 L1672.97 784.73 C1675.48 782.22 1676.32 781.39 1678.74 778.96 C1682.43 781.64 1683.6 782.47 1687.03 785.4 C1687.28 785.65 1687.45 785.82 1687.45 786.07 C1687.45 786.32 1687.03 786.49 1686.53 786.49 L1655.47 786.49 L1655.47 794.03 L1668.28 794.03 C1670.71 791.51 1671.46 790.76 1673.8 788.42 C1677.32 791.01 1678.32 791.77 1681.59 794.53 C1681.92 794.78 1682.09 795.11 1682.09 795.28 C1682.09 795.62 1681.67 795.78 1681.09 795.78 L1655.47 795.78 L1655.47 803.82 L1674.72 803.82 C1677.4 801.06 1678.24 800.3 1680.84 797.71 C1684.6 800.47 1685.69 801.39 1689.21 804.32 C1689.54 804.57 1689.71 804.82 1689.71 805.08 C1689.71 805.41 1689.29 805.58 1688.62 805.58 L1656.56 805.58 C1660.08 809.09 1662.67 810.94 1666.27 812.61 C1673.22 815.79 1680.67 817.46 1691.13 818.13 L1691.13 819.31 C1688.2 820.56 1686.86 822.15 1685.27 826.51 C1684.77 827.93 1684.69 828.01 1684.02 828.01 C1682.93 828.01 1678.16 826.25 1674.72 824.66 C1666.69 820.73 1661.25 815.71 1655.47 806.83 L1655.47 815.2 C1655.47 819.22 1655.47 822.24 1655.72 829.77 C1655.72 831.53 1654.64 831.86 1649.53 831.86 C1646.77 831.86 1646.35 831.61 1646.35 830.19 C1646.52 825.67 1646.77 817.55 1646.77 815.62 L1646.77 810.52 C1640.4 816.54 1636.39 819.39 1630.44 822.4 C1625.5 824.91 1621.4 826.34 1613.12 828.6 L1612.61 827.59 C1619.81 823.91 1625.34 820.23 1631.11 815.04 C1634.55 811.94 1636.47 809.85 1639.9 805.58 L1621.65 805.58 C1619.81 805.58 1617.72 805.75 1615.63 806.16 L1615.21 803.07 C1617.89 803.65 1619.48 803.82 1621.65 803.82 L1646.77 803.82 L1646.77 795.78 L1629.35 795.78 C1627.09 795.78 1625.17 795.95 1622.83 796.29 L1622.32 793.27 C1624.84 793.77 1626.76 794.03 1629.35 794.03 L1646.77 794.03 L1646.77 786.49 L1624.42 786.49 C1622.32 786.49 1621.07 786.58 1618.81 786.99 L1618.31 783.98 C1620.65 784.57 1622.32 784.73 1624.42 784.73 L1638.65 784.73 C1637.98 784.06 1637.81 783.65 1637.47 782.22 C1636.47 778.04 1635.63 775.94 1633.37 773.02 L1634.04 772.35 L1620.15 772.35 C1617.72 772.35 1615.79 772.51 1614.2 772.76 L1613.7 769.75 C1615.96 770.34 1618.05 770.59 1620.15 770.59 L1639.99 770.59 L1639.99 762.64 C1639.99 758.95 1639.9 757.53 1639.57 754.43 C1648.86 755.1 1649.53 755.19 1650.45 755.52 C1651.04 755.69 1651.37 756.02 1651.37 756.44 C1651.37 757.19 1650.7 757.61 1648.19 758.28 L1648.19 770.59 L1654.38 770.59 L1654.38 762.55 C1654.38 759.37 1654.3 757.86 1654.13 754.6 C1664.68 755.27 1665.85 755.44 1665.85 756.61 C1665.85 757.28 1665.18 757.7 1662.67 758.45 L1662.67 770.59 L1665.94 770.59 C1669.12 764.81 1671.54 759.2 1672.63 755.35 C1681.51 758.62 1684.1 759.79 1684.1 760.71 C1684.1 761.46 1683.1 761.8 1680.75 761.8 L1680.08 761.8 C1673.22 767.82 1672.88 768.08 1669.12 770.59 L1677.4 770.59 C1679.92 767.99 1679.92 767.99 1683.1 764.56 C1686.78 767.32 1687.87 768.16 1691.47 771.26 C1691.72 771.51 1691.89 771.76 1691.89 771.93 C1691.89 772.18 1691.47 772.35 1690.88 772.35 Z" fill="#2d2d2d"></path>
<path d="M1254.27 814.87 Q1255.91 812.75 1259.26 808.9 Q1262.63 804.53 1264.22 803.54 C1267.26 801.66 1268.19 804.34 1267.24 807.05 C1266.13 810.19 1263.28 812.56 1260.67 814.35 C1258.93 815.55 1256.53 816.6 1255.34 816.79 C1254.16 816.98 1252.62 816.99 1254.27 814.87 M1225.64 801.91 C1235.46 784.57 1250.56 769.84 1269.03 763.55 C1274.13 761.82 1279.41 760.73 1284.65 759.54 C1285.57 759.33 1286.71 758.82 1286.63 757.86 C1286.55 757.04 1285.62 756.67 1284.84 756.48 C1252 748.46 1216.95 754.97 1202.4 790.37 C1198.84 799.03 1198.27 809.36 1202.56 817.62 C1206.07 824.38 1212.52 829.17 1219.53 831.73 C1230.45 835.7 1243.39 835.37 1254.62 832.79 C1257.52 832.12 1260.38 831.24 1263.14 830.09 C1269.99 827.27 1276.29 822.8 1280.76 816.75 C1283.62 812.88 1285.74 808.27 1285.96 803.42 C1286.23 797.43 1283.39 791.39 1278.67 787.92 C1276.07 786.01 1272.95 784.92 1269.77 784.68 C1267.16 784.49 1264.51 784.88 1262.07 785.89 C1256.34 788.25 1252.25 793.51 1248.91 798.86 C1245.58 804.2 1242.65 809.96 1238.13 814.29 C1236.29 816.05 1234.15 817.58 1231.7 818.18 C1229.26 818.77 1226.49 818.3 1224.68 816.52 C1222.84 814.69 1222.3 811.8 1222.71 809.19 C1223.11 806.58 1224.35 804.19 1225.64 801.91" fill="#1d3eb1"></path>
</svg>